<?xml version="1.0" encoding="utf-8"?>
<!DOCTYPE svg PUBLIC "-//W3C//DTD SVG 20010904//EN" "http://www.w3.org/TR/2001/REC-SVG-20010904/DTD/svg10.dtd">
<svg version="1.0" xmlns="http://www.w3.org/2000/svg" width="520px" height="447px" viewBox="0 0 520 447" preserveAspectRatio="xMidYMid meet">
 <g fill="#5965e0">
  <path d="M2 439.5 c0 -2.4 15.3 -99.9 16.5 -105.2 l0.5 -2.3 73.1 0 73.1 0 -0.6 2.8 c-0.9 4.5 -17.6 105.1 -17.6 106.2 0 0.7 -24.6 1 -72.5 1 l-72.5 0 0 -2.5z"/>
  <path d="M298.4 439.3 c0.8 -4 4.9 -28.6 10.1 -61.3 2.5 -15.7 5.3 -32.4 6.2 -37.2 l1.6 -8.8 11.4 0 11.4 0 -0.6 4.8 c-0.4 2.6 -3.1 19.3 -6.1 37.2 -3 17.9 -5.3 33.4 -5.2 34.4 0.3 1.6 1.3 1.1 6.8 -3.4 3.6 -3 6.7 -5.7 7 -6 0.3 -0.3 9.7 -8.3 21 -17.7 11.3 -9.4 23.9 -19.9 28 -23.4 9 -7.6 33.8 -28.4 51 -42.8 6.9 -5.8 12.6 -10.8 12.8 -11.2 0.2 -0.3 -1.9 -3.1 -4.5 -6 -2.7 -3 -6.9 -7.9 -9.3 -10.9 -2.5 -3 -4.7 -5.7 -5 -6 -0.4 -0.3 -5.7 -6.6 -12 -14 -6.3 -7.4 -18 -21.1 -26 -30.5 -8 -9.3 -19 -22.3 -24.4 -28.8 -5.4 -6.5 -10.2 -11.5 -10.6 -11 -0.3 0.4 -3 15.4 -5.9 33.3 -2.9 17.9 -6 36.2 -6.8 40.8 l-1.5 8.2 -11.4 0 c-9.7 0 -11.4 -0.2 -11.4 -1.6 0 -1.5 7.4 -46.8 8.6 -52.6 l0.6 -2.8 -75.5 0 -75.5 0 -0.5 2.3 c-0.3 1.2 -2.4 14 -4.8 28.5 l-4.2 26.2 -72.8 0 c-72.8 0 -72.9 0 -72.9 -2.1 0 -1.8 15.2 -98.2 16.6 -105.2 l0.6 -2.7 222.4 0 c177.2 0 222.4 0.3 222.4 1.3 0.1 0.6 -9.9 62.1 -22.2 136.4 l-22.3 135.3 -73.8 0 -73.9 0 0.6 -2.7z"/>
  <path d="M54 113.8 c0 -0.7 0.7 -5.1 1.5 -9.8 2.1 -11.7 15.5 -96.3 15.5 -97.8 0 -0.9 16.7 -1.2 73.5 -1.2 66.2 0 73.5 0.2 73.5 1.6 0 0.8 -1.8 12.3 -4 25.4 -2.2 13.1 -4 24.3 -4 24.9 0 0.8 22.4 1.1 75.5 1.1 l75.4 0 0.6 -3.3 c0.4 -1.8 2.3 -13.6 4.4 -26.2 l3.7 -23 73.7 -0.3 c69.7 -0.2 73.7 -0.1 73.7 1.5 0 1 -3.9 25.8 -8.7 55.1 l-8.7 53.2 -222.8 0 c-177.6 0 -222.8 -0.3 -222.8 -1.2z"/>
 </g>
</svg>