<svg width="365" height="82" viewBox="0 0 365 82" fill="none" xmlns="http://www.w3.org/2000/svg">
<g clip-path="url(#clip0)">
<path d="M130.8 53.896H140.272L136.56 72.328C134.299 74.0773 131.675 75.4213 128.688 76.36C125.701 77.2987 122.608 77.768 119.408 77.768C114.928 77.768 111.024 76.9573 107.696 75.336C104.368 73.7147 101.787 71.432 99.952 68.488C98.16 65.544 97.264 62.152 97.264 58.312C97.264 53.2347 98.4373 48.648 100.784 44.552C103.131 40.456 106.437 37.256 110.704 34.952C114.971 32.6053 119.877 31.432 125.424 31.432C129.691 31.432 133.381 32.0933 136.496 33.416C139.653 34.7387 142.192 36.68 144.112 39.24L136.688 45.256C135.195 43.5067 133.509 42.248 131.632 41.48C129.755 40.6693 127.536 40.264 124.976 40.264C121.563 40.264 118.555 41.032 115.952 42.568C113.349 44.0613 111.323 46.1307 109.872 48.776C108.464 51.4213 107.76 54.3867 107.76 57.672C107.76 61.128 108.869 63.88 111.088 65.928C113.349 67.9333 116.571 68.936 120.752 68.936C123.397 68.936 125.872 68.4027 128.176 67.336L130.8 53.896ZM162.575 77.512C159.119 77.512 156.068 76.872 153.423 75.592C150.82 74.312 148.794 72.52 147.343 70.216C145.935 67.8693 145.231 65.16 145.231 62.088C145.231 58.2907 146.127 54.8773 147.919 51.848C149.711 48.8187 152.186 46.4293 155.343 44.68C158.5 42.9307 162.063 42.056 166.031 42.056C169.53 42.056 172.58 42.696 175.183 43.976C177.786 45.256 179.791 47.0693 181.199 49.416C182.65 51.72 183.375 54.408 183.375 57.48C183.375 61.2773 182.479 64.6907 180.687 67.72C178.938 70.7493 176.463 73.1387 173.263 74.888C170.106 76.6373 166.543 77.512 162.575 77.512ZM163.215 69.256C165.135 69.256 166.863 68.7867 168.399 67.848C169.935 66.8667 171.13 65.5227 171.983 63.816C172.836 62.1093 173.263 60.1467 173.263 57.928C173.263 55.5813 172.58 53.7253 171.215 52.36C169.85 50.9947 167.93 50.312 165.455 50.312C163.492 50.312 161.743 50.8027 160.207 51.784C158.671 52.7227 157.476 54.0453 156.623 55.752C155.77 57.4587 155.343 59.4213 155.343 61.64C155.343 63.9867 156.026 65.8427 157.391 67.208C158.799 68.5733 160.74 69.256 163.215 69.256ZM246.498 32.2L237.602 77H227.874L233.122 50.376L216.034 72.264H211.426L202.21 50.12L196.834 77H187.106L196.066 32.2H204.514L215.714 60.104L237.602 32.2H246.498ZM265.575 77.512C262.119 77.512 259.068 76.872 256.423 75.592C253.82 74.312 251.794 72.52 250.343 70.216C248.935 67.8693 248.231 65.16 248.231 62.088C248.231 58.2907 249.127 54.8773 250.919 51.848C252.711 48.8187 255.186 46.4293 258.343 44.68C261.5 42.9307 265.063 42.056 269.031 42.056C272.53 42.056 275.58 42.696 278.183 43.976C280.786 45.256 282.791 47.0693 284.199 49.416C285.65 51.72 286.375 54.408 286.375 57.48C286.375 61.2773 285.479 64.6907 283.687 67.72C281.938 70.7493 279.463 73.1387 276.263 74.888C273.106 76.6373 269.543 77.512 265.575 77.512ZM266.215 69.256C268.135 69.256 269.863 68.7867 271.399 67.848C272.935 66.8667 274.13 65.5227 274.983 63.816C275.836 62.1093 276.263 60.1467 276.263 57.928C276.263 55.5813 275.58 53.7253 274.215 52.36C272.85 50.9947 270.93 50.312 268.455 50.312C266.492 50.312 264.743 50.8027 263.207 51.784C261.671 52.7227 260.476 54.0453 259.623 55.752C258.77 57.4587 258.343 59.4213 258.343 61.64C258.343 63.9867 259.026 65.8427 260.391 67.208C261.799 68.5733 263.74 69.256 266.215 69.256ZM329.553 42.568L308.177 77H297.873L290.257 42.568H300.113L305.105 66.056L319.569 42.568H329.553ZM363.217 57.224C363.217 58.8027 363.025 60.552 362.641 62.472H336.273C336.614 67.1653 339.58 69.512 345.169 69.512C346.918 69.512 348.582 69.2347 350.161 68.68C351.782 68.1253 353.19 67.336 354.385 66.312L358.545 72.904C356.625 74.44 354.428 75.592 351.953 76.36C349.478 77.128 346.876 77.512 344.145 77.512C340.604 77.512 337.489 76.8933 334.801 75.656C332.156 74.376 330.108 72.5627 328.657 70.216C327.249 67.8693 326.545 65.16 326.545 62.088C326.545 58.2907 327.398 54.8773 329.105 51.848C330.854 48.776 333.265 46.3867 336.337 44.68C339.409 42.9307 342.908 42.056 346.833 42.056C350.161 42.056 353.041 42.6747 355.473 43.912C357.948 45.1493 359.846 46.92 361.169 49.224C362.534 51.528 363.217 54.1947 363.217 57.224ZM346.385 49.544C344.038 49.544 342.054 50.184 340.433 51.464C338.812 52.7013 337.66 54.4293 336.977 56.648H354.065C354.065 54.4293 353.361 52.7013 351.953 51.464C350.588 50.184 348.732 49.544 346.385 49.544Z" fill="white"/>
<path d="M4.44562 76.811C4.44562 76.4244 6.91858 60.7186 7.11254 59.8649L7.19335 59.4944H19.0086H30.8239L30.7269 59.9454C30.5814 60.6703 27.8822 76.8754 27.8822 77.0526C27.8822 77.1654 23.906 77.2137 16.1639 77.2137H4.44562V76.811Z" fill="white"/>
<path d="M52.3531 76.7787C52.4825 76.1344 53.1451 72.1717 53.9856 66.9043C54.3897 64.3752 54.8423 61.6851 54.9877 60.9119L55.2463 59.4944H57.0889H58.9315L58.8346 60.2676C58.7699 60.6864 58.3335 63.3765 57.8486 66.2599C57.3637 69.1433 56.992 71.6402 57.0081 71.8012C57.0566 72.059 57.2183 71.9784 58.1072 71.2536C58.6891 70.7703 59.1902 70.3354 59.2386 70.287C59.2871 70.2387 60.8065 68.95 62.6329 67.4358C64.4593 65.9217 66.4959 64.2303 67.1586 63.6665C68.6133 62.4422 72.6217 59.0917 75.4018 56.7721C76.517 55.8378 77.4383 55.0323 77.4707 54.9679C77.503 54.9196 77.1636 54.4685 76.7433 54.0014C76.3069 53.5181 75.6281 52.7288 75.2402 52.2456C74.8361 51.7623 74.4805 51.3274 74.432 51.2791C74.3673 51.2307 73.5107 50.2159 72.4924 49.0239C71.4741 47.8319 69.5831 45.625 68.29 44.1108C66.997 42.6127 65.219 40.5186 64.3462 39.4716C63.4734 38.4245 62.6976 37.6191 62.6329 37.6997C62.5844 37.7641 62.148 40.1804 61.6793 43.0638C61.2105 45.9472 60.7095 48.895 60.5802 49.636L60.3377 50.9569H58.4951C56.9273 50.9569 56.6525 50.9247 56.6525 50.6992C56.6525 50.4575 57.8486 43.1604 58.0426 42.2261L58.1396 41.7751H45.9364H33.7332L33.6524 42.1456C33.6039 42.3389 33.2645 44.4008 32.8766 46.7365L32.1977 50.9569H20.4309C8.66417 50.9569 8.64801 50.9569 8.64801 50.6186C8.64801 50.3287 11.1048 34.8001 11.3311 33.6725L11.4281 33.2376H47.3749C76.016 33.2376 83.3217 33.2859 83.3217 33.447C83.3379 33.5437 81.7216 43.4504 79.7335 55.4189L76.1291 77.2137H64.2007H52.2562L52.3531 76.7787V76.7787Z" fill="white"/>
<path d="M12.8505 24.3458C12.8505 24.233 12.9636 23.5242 13.0929 22.7671C13.4323 20.8824 15.5982 7.25469 15.5982 7.01306C15.5982 6.86809 18.2974 6.81976 27.4781 6.81976C38.1781 6.81976 39.358 6.85198 39.358 7.0775C39.358 7.20637 39.0671 9.05884 38.7115 11.169C38.3559 13.2793 38.065 15.0834 38.065 15.18C38.065 15.3089 41.6855 15.3572 50.2681 15.3572H62.4551L62.5521 14.8257C62.6168 14.5357 62.9239 12.6349 63.2633 10.6052L63.8613 6.90031L75.7736 6.85198C87.0393 6.81976 87.6858 6.83587 87.6858 7.09361C87.6858 7.25469 87.0554 11.2496 86.2796 15.9694L84.8734 24.5391H48.8619C20.1562 24.5391 12.8505 24.4907 12.8505 24.3458V24.3458Z" fill="white"/>
</g>
<defs>
<clipPath id="clip0">
<rect width="365" height="82" fill="white"/>
</clipPath>
</defs>
</svg>
