<svg width="360" height="76" viewBox="0 0 360 76" fill="none" xmlns="http://www.w3.org/2000/svg">
<g clip-path="url(#clip0)">
<path d="M11.1804 5.69226H28.4231L17.2468 60.7797H0L11.1804 5.69226Z" fill="white"/>
<path d="M62.0337 5.69226H79.2764L68.1001 60.7797H50.8533L62.0337 5.69226Z" fill="white"/>
<path d="M36.7338 5.69226H53.9765L39.6321 75.9999H22.3894L36.7338 5.69226Z" fill="white"/>
<path d="M126.8 37.896H136.272L132.56 56.328C130.299 58.0773 127.675 59.4213 124.688 60.36C121.701 61.2987 118.608 61.768 115.408 61.768C110.928 61.768 107.024 60.9573 103.696 59.336C100.368 57.7147 97.7867 55.432 95.952 52.488C94.16 49.544 93.264 46.152 93.264 42.312C93.264 37.2347 94.4373 32.648 96.784 28.552C99.1307 24.456 102.437 21.256 106.704 18.952C110.971 16.6053 115.877 15.432 121.424 15.432C125.691 15.432 129.381 16.0933 132.496 17.416C135.653 18.7387 138.192 20.68 140.112 23.24L132.688 29.256C131.195 27.5067 129.509 26.248 127.632 25.48C125.755 24.6693 123.536 24.264 120.976 24.264C117.563 24.264 114.555 25.032 111.952 26.568C109.349 28.0613 107.323 30.1307 105.872 32.776C104.464 35.4213 103.76 38.3867 103.76 41.672C103.76 45.128 104.869 47.88 107.088 49.928C109.349 51.9333 112.571 52.936 116.752 52.936C119.397 52.936 121.872 52.4027 124.176 51.336L126.8 37.896ZM158.575 61.512C155.119 61.512 152.068 60.872 149.423 59.592C146.82 58.312 144.794 56.52 143.343 54.216C141.935 51.8693 141.231 49.16 141.231 46.088C141.231 42.2907 142.127 38.8773 143.919 35.848C145.711 32.8187 148.186 30.4293 151.343 28.68C154.5 26.9307 158.063 26.056 162.031 26.056C165.53 26.056 168.58 26.696 171.183 27.976C173.786 29.256 175.791 31.0693 177.199 33.416C178.65 35.72 179.375 38.408 179.375 41.48C179.375 45.2773 178.479 48.6907 176.687 51.72C174.938 54.7493 172.463 57.1387 169.263 58.888C166.106 60.6373 162.543 61.512 158.575 61.512ZM159.215 53.256C161.135 53.256 162.863 52.7867 164.399 51.848C165.935 50.8667 167.13 49.5227 167.983 47.816C168.836 46.1093 169.263 44.1467 169.263 41.928C169.263 39.5813 168.58 37.7253 167.215 36.36C165.85 34.9947 163.93 34.312 161.455 34.312C159.492 34.312 157.743 34.8027 156.207 35.784C154.671 36.7227 153.476 38.0453 152.623 39.752C151.77 41.4587 151.343 43.4213 151.343 45.64C151.343 47.9867 152.026 49.8427 153.391 51.208C154.799 52.5733 156.74 53.256 159.215 53.256ZM242.498 16.2L233.602 61H223.874L229.122 34.376L212.034 56.264H207.426L198.21 34.12L192.834 61H183.106L192.066 16.2H200.514L211.714 44.104L233.602 16.2H242.498ZM261.575 61.512C258.119 61.512 255.068 60.872 252.423 59.592C249.82 58.312 247.794 56.52 246.343 54.216C244.935 51.8693 244.231 49.16 244.231 46.088C244.231 42.2907 245.127 38.8773 246.919 35.848C248.711 32.8187 251.186 30.4293 254.343 28.68C257.5 26.9307 261.063 26.056 265.031 26.056C268.53 26.056 271.58 26.696 274.183 27.976C276.786 29.256 278.791 31.0693 280.199 33.416C281.65 35.72 282.375 38.408 282.375 41.48C282.375 45.2773 281.479 48.6907 279.687 51.72C277.938 54.7493 275.463 57.1387 272.263 58.888C269.106 60.6373 265.543 61.512 261.575 61.512ZM262.215 53.256C264.135 53.256 265.863 52.7867 267.399 51.848C268.935 50.8667 270.13 49.5227 270.983 47.816C271.836 46.1093 272.263 44.1467 272.263 41.928C272.263 39.5813 271.58 37.7253 270.215 36.36C268.85 34.9947 266.93 34.312 264.455 34.312C262.492 34.312 260.743 34.8027 259.207 35.784C257.671 36.7227 256.476 38.0453 255.623 39.752C254.77 41.4587 254.343 43.4213 254.343 45.64C254.343 47.9867 255.026 49.8427 256.391 51.208C257.799 52.5733 259.74 53.256 262.215 53.256ZM325.553 26.568L304.177 61H293.873L286.257 26.568H296.113L301.105 50.056L315.569 26.568H325.553ZM359.217 41.224C359.217 42.8027 359.025 44.552 358.641 46.472H332.273C332.614 51.1653 335.58 53.512 341.169 53.512C342.918 53.512 344.582 53.2347 346.161 52.68C347.782 52.1253 349.19 51.336 350.385 50.312L354.545 56.904C352.625 58.44 350.428 59.592 347.953 60.36C345.478 61.128 342.876 61.512 340.145 61.512C336.604 61.512 333.489 60.8933 330.801 59.656C328.156 58.376 326.108 56.5627 324.657 54.216C323.249 51.8693 322.545 49.16 322.545 46.088C322.545 42.2907 323.398 38.8773 325.105 35.848C326.854 32.776 329.265 30.3867 332.337 28.68C335.409 26.9307 338.908 26.056 342.833 26.056C346.161 26.056 349.041 26.6747 351.473 27.912C353.948 29.1493 355.846 30.92 357.169 33.224C358.534 35.528 359.217 38.1947 359.217 41.224ZM342.385 33.544C340.038 33.544 338.054 34.184 336.433 35.464C334.812 36.7013 333.66 38.4293 332.977 40.648H350.065C350.065 38.4293 349.361 36.7013 347.953 35.464C346.588 34.184 344.732 33.544 342.385 33.544Z" fill="white"/>
</g>
<defs>
<clipPath id="clip0">
<rect width="360" height="76" fill="white"/>
</clipPath>
</defs>
</svg>
